@startuml
class "::cv::Rect_<int>" as C_0011503404790081369597
class C_0011503404790081369597 {
__
}
class "::cv::Point_<float>" as C_0014702312740545146475
class C_0014702312740545146475 {
__
}
class "::cv::Size_<int>" as C_0012828316383792434276
class C_0012828316383792434276 {
__
}
class "::cv::Ptr<cv::FaceDetectorYN>" as C_0008976615770327578464
class C_0008976615770327578464 {
__
}
class "::cv::Ptr<cv::face::Facemark>" as C_0015916111961563630167
class C_0015916111961563630167 {
__
}
class "::cv::Ptr<FaceFeatureExtractor>" as C_0013660456406086794567
class C_0013660456406086794567 {
__
}
class "::cv::Point_<int>" as C_0009457203331583674562
class C_0009457203331583674562 {
__
}
class "::cv::Ptr<FaceFeatureMasksPlan>" as C_0009512151269622134790
class C_0009512151269622134790 {
__
}
class "::cv::Ptr<BeautyFilterPlan>" as C_0000131267513168910887
class C_0000131267513168910887 {
__
}
class "::cv::Ptr<cv::detail::MultiBandBlender>" as C_0013683371754112636395
class C_0013683371754112636395 {
__
}
class "::cv::Scalar_<double>" as C_0012691572243635623162
class C_0012691572243635623162 {
__
}
class "::cv::Scalar_<float>" as C_0017565488616650291079
class C_0017565488616650291079 {
__
}
class "::cv::Size_<float>" as C_0012841155197512327502
class C_0012841155197512327502 {
__
}
class "::cv::Ptr<cv::Tracker>" as C_0006885173936745783478
class C_0006885173936745783478 {
__
}
class "::cv::Ptr<cv::FastFeatureDetector>" as C_0001645353501555632351
class C_0001645353501555632351 {
__
}
class "::cv::Ptr<Plan>" as C_0001145899880886997613
class C_0001145899880886997613 {
__
}
class "::gwe::Mouse_<cv::Point_<int>>" as C_0007823658313514250123
class C_0007823658313514250123 {
__
}
class "::FaceFeatures" as C_0017634450699635978363
class C_0017634450699635978363 {
+FaceFeatures() : void
+FaceFeatures(const cv::Rect & faceRect, const std::vector<cv::Point2f> & shapes, const double & scale) : void
..
+drawEyes() const : void
+drawEyesAndLipsMask() const : void
+drawFaceOval() const : void
+drawFaceOvalMask() const : void
+drawLips() const : void
+empty() const : size_t
+features() const : const std::vector<vector<cv::Point2f>> &
+points() const : const std::vector<cv::Point2f> &
__
+allFeatures_ : vector<vector<cv::Point2f>>
+allPoints_ : vector<cv::Point2f>
+faceRect_ : cv::Rect
+scale_ : double
}
class "::FaceFeatureExtractor" as C_0012024718733503545994
class C_0012024718733503545994 {
+FaceFeatureExtractor(const cv::Size & inputSize, const float & inputScale) : void
..
+extract(const cv::UMat & inputFrame, FaceFeatures & outputFeatures) : bool
__
-detector_ : cv::Ptr<cv::FaceDetectorYN>
-faceRects_ : std::vector<cv::Rect>
-facemark_ : cv::Ptr<cv::face::Facemark>
-faces_ : cv::Mat
-scale_ : const float
-shapes_ : std::vector<std::vector<cv::Point2f>>
-sz_ : const cv::Size
}
class "Plan::Property<cv::Size_<int>>" as C_0009648834951001119237
class C_0009648834951001119237 {
__
}
class "Plan::Property<uint64_t>" as C_0003366586764382543242
class C_0003366586764382543242 {
__
}
class "Plan::Event<gwe::Mouse_<cv::Point_<int>>>" as C_0013533335352226443165
class C_0013533335352226443165 {
__
}
class "::BeautyDemoPlan" as C_0003691461508888957067
class C_0003691461508888957067 {
+BeautyDemoPlan() : void
..
{static} -compose_result(Frames & frames, const Params & params) : void
+gui() : void
+infer() : void
{static} -prepare_frames(const cv::Size & downSize, Frames & frames) : void
+setup() : void
__
{static} -UMAT_COPY_TO_ : void (cv::UMat::*const)(cv::OutputArray) const
-beautyFilterPlan_ : cv::Ptr<BeautyFilterPlan>
-downSize_ : const cv::Size
-extractor_ : cv::Ptr<FaceFeatureExtractor>
{static} -features_ : FaceFeatures
-frames_ : Frames
{static} -params_ : Params
-prepareFeatureMasksPlan_ : cv::Ptr<FaceFeatureMasksPlan>
-pressEvents_ : Event<Mouse>
-scale_ : float
-seqCnt_ : Property<uint64_t>
-size_ : Property<cv::Size>
}
class "::BeautyDemoPlan::Params" as C_0002049758924237025633
class C_0002049758924237025633 {
__
+enabled_ : bool
+eyesAndLipsSaturation_ : float
+fullscreen_ : bool
+sideBySide_ : bool
+skinContrast_ : float
+skinSaturation_ : float
+state_ : enum State
+stretch_ : bool
}
enum "::BeautyDemoPlan::Params::State" as C_0007301216383951390533
enum C_0007301216383951390533 {
ON
OFF
NOT_DETECTED
}
class "::BeautyDemoPlan::Frames" as C_0017046677242229989481
class C_0017046677242229989481 {
__
+backgroundMaskGrey_ : cv::UMat
+bgr_ : cv::UMat
+down_ : cv::UMat
+eyesAndLipsMaskGrey_ : cv::UMat
+eyesAndLips_ : cv::UMat
+faceOval_ : cv::UMat
+faceSkinMaskGrey_ : cv::UMat
+orig_ : cv::UMat
+result_ : cv::UMat
+skin_ : cv::UMat
+stitched_ : cv::UMat
}
class "::FaceFeatureMasksPlan" as C_0012341812199177372788
class C_0012341812199177372788 {
+FaceFeatureMasksPlan(const FaceFeatures & inputFeatures, BeautyDemoPlan::Frames & inputOutputFrames) : void
..
+infer() : void
{static} +prepare_masks(BeautyDemoPlan::Frames & frames) : void
__
-inputFeatures_ : const FaceFeatures &
-inputOutputFrames_ : BeautyDemoPlan::Frames &
}
class "::BeautyFilterPlan" as C_0016404967669614696568
class C_0016404967669614696568 {
+BeautyFilterPlan(const BeautyDemoPlan::Params & intputParams, BeautyDemoPlan::Frames & inputOutputFrames) : void
..
{static} -adjust_face_features(BeautyDemoPlan::Frames & frames, std::vector<cv::UMat> & channels, const BeautyDemoPlan::Params & params) : void
+infer() : void
{static} -stitch_face(cv::Ptr<cv::detail::MultiBandBlender> & bl, BeautyDemoPlan::Frames & frames, cv::UMat & stitchedFloat) : void
__
-blender_ : cv::Ptr<cv::detail::MultiBandBlender>
-channels_ : std::vector<cv::UMat>
-inputOutputFrames_ : BeautyDemoPlan::Frames &
-inputParams_ : const BeautyDemoPlan::Params &
-stitchedFloat_ : cv::UMat
}
class "::CubeScene" as C_0013220523135191901578
class C_0013220523135191901578 {
+destroy() const : void
+init() : void
{static} -load_shader() : GLuint
+render(const double xpos = 0.0, const double ypos = 0.0) const : void
__
{static} -COLOR_INDEX_ : const GLuint
{static} -TRIANGLES_ : const GLuint
{static} -TRIANGLE_INDICES_ : unsigned short[36]
{static} -VERTEX_COLORS_ : float[24]
{static} -VERTICES_ : float[24]
{static} -VERTICES_INDEX_ : const GLuint
-handles_ : struct Handles
}
class "::CubeScene::Handles" as C_0014467371581349318797
class C_0014467371581349318797 {
__
+colorsVbo_ : GLuint
+program_ : GLuint
+trianglesEbo_ : GLuint
+uniform_ : GLuint
+vao_ : GLuint
+verticesVbo_ : GLuint
}
class "::CubeDemoPlan" as C_0016819006405677120920
class C_0016819006405677120920 {
+infer() : void
+setup() : void
+teardown() : void
__
-scene_ : CubeScene
}
class "::PureColor" as C_0009415110909064258035
class C_0009415110909064258035 {
+draw(const cv::Size & sz) const : void
+find(const cv::UMat & bgra) : void
+found() const : bool
__
-binarizedBGRIndex_ : std::vector<std::string>
-foundName_ : string
-found_ : bool
-lastColor_ : Scalar
}
class "::CustomSourceAndSinkPlan" as C_0005697803539771914262
class C_0005697803539771914262 {
+infer() : void
__
-finder_ : PureColor
-params_ : struct Params
-size_ : Property<cv::Size>
}
class "::CustomSourceAndSinkPlan::Params" as C_0012411556942105899070
class C_0012411556942105899070 {
__
+colorName_ : std::string
+found_ : bool
+last_ : cv::Scalar
}
class "::DisplayImageFB" as C_0002144789375385317597
class C_0002144789375385317597 {
+DisplayImageFB(const string & filename) : void
..
+infer() : void
+setup() : void
__
-converted_ : UMat
-image_ : UMat
-size_ : Property<cv::Size>
}
class "::DisplayImageNVG" as C_0010050257221250877193
class C_0010050257221250877193 {
+DisplayImageNVG(const std::string & filename) : void
..
+infer() : void
+setup() : void
__
-image_ : struct Image_t
-size_ : Property<cv::Size>
}
class "::DisplayImageNVG::Image_t" as C_0018323296888837851871
class C_0018323296888837851871 {
__
+filename_ : std::string
+h_ : int
+paint_ : nvg::Paint
+w_ : int
}
class "::TextRenderer" as C_0006322745746179723541
class C_0006322745746179723541 {
+TextRenderer(const float & fontSize = 1) : void
..
+draw(const cv::Size & sz, const double & timeOffset) : void
__
+color_ : cv::Scalar_<float>
+fontSize_ : float
+height_ : double
+lineOffsetY_ : double
+lines_ : vector<string>
+rendering_ : cv::UMat
+textOffsetY_ : double
}
class "::StarsRenderer" as C_0011876767352523608122
class C_0011876767352523608122 {
+draw(const cv::Size & sz) : void
__
+maxStarAlpha_ : float
+maxStarCount_ : int
+maxStarSize_ : float
+minStarCount_ : int
+minStarSize_ : float
+rendering_ : cv::UMat
-rng_ : cv::RNG
+update_ : bool
}
class "::Warp" as C_0004020929081029510661
class C_0004020929081029510661 {
+calculate(const cv::Size & sz) : void
+perform(const cv::UMat & textRendering, const cv::UMat & starsRendering, cv::UMat & result) : void
__
+rendering_ : cv::UMat
+temp_ : struct Temp
+transMatrix_ : cv::Mat
+update_ : bool
+warpRatio_ : float
}
class "::Warp::Temp" as C_0009761367101418875161
class C_0009761367101418875161 {
__
+blur_ : cv::UMat
+mask_ : cv::UMat
+tmp_ : cv::UMat
}
class "Plan::Property<cv::Rect_<int>>" as C_0000913204125010388495
class C_0000913204125010388495 {
__
}
class "::FontDemoPlan" as C_0012683496213704444055
class C_0012683496213704444055 {
+gui() : void
+infer() : void
+setup() : void
__
{static} -UMAT_COPY_ : void (*const)(const cv::UMat &,cv::UMat &)
-lastVpSize_ : cv::Size
-size_ : Property<cv::Size>
{static} -stars_ : StarsRenderer
{static} -text_ : TextRenderer
{static} -timeOffset_ : double
-vp_ : Property<cv::Rect>
{static} -warp_ : Warp
}
class "::FontRenderingPlan" as C_0002427133778835796536
class C_0002427133778835796536 {
+infer() : void
__
-size_ : Property<cv::Size>
-text_ : string
}
class "::FontWithGuiPlan" as C_0002788367631872936021
class C_0002788367631872936021 {
+gui() : void
+infer() : void
__
-hw_ : string
{static} -params_ : struct Params
-size_ : Property<cv::Size>
}
class "::FontWithGuiPlan::Params" as C_0002319757581708897163
class C_0002319757581708897163 {
__
+color_ : cv::Scalar_<float>
+frontSize_ : float
}
class "::ManyCubesDemoPlan" as C_0013110593561891133178
class C_0013110593561891133178 {
+infer() : void
+setup() : void
+teardown() : void
__
{static} -NUMBER_OF_CONTEXTS_ : const size_t
-currentGlCtx_ : size_t
-scene_ : CubeScene
}
class "::VideoDemoPlan" as C_0005293148243978868372
class C_0005293148243978868372 {
+infer() : void
+setup() : void
+teardown() : void
__
-scene_ : CubeScene
}
class "::NanoVGDemoPlan" as C_0017969802394257173831
class C_0017969802394257173831 {
+NanoVGDemoPlan() : void
..
+infer() : void
+setup() : void
__
{static} -MERGE_ : void (*const)(cv::InputArrayOfArrays,cv::OutputArray)
{static} -RESIZE_VEC_ : void (std::vector<cv::UMat>::*const)(size_t)
{static} -ROUND_ : double (*const)(double)
{static} -SPLIT_ : void (*const)(cv::InputArray,cv::OutputArrayOfArrays)
-bgra_ : cv::UMat
-frame_ : cv::UMat
-hsvChannels_ : std::vector<cv::UMat>
-hsv_ : cv::UMat
-hueChannel_ : cv::UMat
-hue_ : float
-size_ : Property<cv::Size>
}
class "::Camera2D" as C_0006266419177318437093
class C_0006266419177318437093 {
+Camera2D() : void
+Camera2D(double autoZoomSeconds) : void
..
+updateAutoZoom(const int & maxIterations) : void
__
+autoZoomSeconds_ : double
+centerX_ : float
+centerY_ : float
+currentZoom_ : float
+startTime_ : double
+zoomIn_ : bool
}
class "::MandelbrotScene" as C_0011716593238131958110
class C_0011716593238131958110 {
+destroy() const : void
+init() : void
-loadBuffers() : void
-loadShaders() : GLuint
+render(const cv::Size & sz, const Settings & settings, const Camera2D & camera) const : void
__
-glHandles : struct Handles
{static} -indices_ : unsigned int[6]
{static} -vertices_ : float[12]
}
class "::MandelbrotScene::Handles" as C_0011277546228242115754
class C_0011277546228242115754 {
__
+baseColorHdl_ : GLint
+centerXHdl_ : GLint
+centerYHdl_ : GLint
+contrastBoostHdl_ : GLint
+currentZoomHdl_ : GLint
+ebo_ : GLuint
+maxIterationsHdl_ : GLint
+shaderHdl_ : GLuint
+vao_ : GLuint
+vbo_ : GLuint
+viewportHdl_ : GLint
}
class "::MandelbrotScene::Settings" as C_0009507759707932437373
class C_0009507759707932437373 {
__
+autoZoom_ : bool
+baseColor_ : cv::Scalar_<float>
+contrastBoost_ : int
+maxIterations_ : int
}
class "::ShaderDemoPlan" as C_0009165709807179207525
class C_0009165709807179207525 {
+ShaderDemoPlan(int autoZoomSeconds) : void
..
+gui() : void
+infer() : void
{static} -process_events(const cv::Size & sz, const cv::Size & winSz, const Mouse::List & scrollEvents, const Mouse::List & releaseEvents, const double & scale, Params & params) : bool
+setup() : void
+teardown() : void
__
-autoZoomSeconds_ : int
{static} -params_ : struct Params
-release_ : Event<Mouse>
-scale_ : double
-scene_ : MandelbrotScene
-scroll_ : Event<Mouse>
-size_ : Property<cv::Size>
-winSz_ : Property<cv::Size>
}
class "::ShaderDemoPlan::Params" as C_0003948344328866063485
class C_0003948344328866063485 {
__
+camera_ : Camera2D
+settings_ : MandelbrotScene::Settings
}
class "::PedestrianDemoPlan" as C_0009411216676298393653
class C_0009411216676298393653 {
+infer() : void
{static} -prepare_frames(const Params & params, Frames & frames) : void
{static} -present(cv::UMat & framebuffer, const cv::UMat & background) : void
+setup() : void
__
-detection_ : struct Detection
{static} -doRedect_ : const PedestrianDemoPlan::(lambda at /home/elchaschab/devel/Plan-V4D/modules/v4d/samples/pedestrian-demo.cpp:57:39)
{static} -dontRedect_ : const PedestrianDemoPlan::(lambda at /home/elchaschab/devel/Plan-V4D/modules/v4d/samples/pedestrian-demo.cpp:56:41)
-frames_ : struct Frames
-hog : class HOG
-marker_ : class ObjectMarker
-nms : class NonMaxSupression
-params_ : struct Params
-size_ : Property<cv::Size>
{static} -tracked_ : cv::Rect
-tracking : class Tracking
}
class "::PedestrianDemoPlan::Params" as C_0016377210597784346867
class C_0016377210597784346867 {
__
+downSize_ : cv::Size
+newTracked_ : cv::Rect
+scale_ : cv::Size_<float>
}
class "::PedestrianDemoPlan::Frames" as C_0014379154094335627936
class C_0014379154094335627936 {
__
+background_ : cv::UMat
+videoFrameBGR_ : cv::UMat
+videoFrameDownGrey_ : cv::UMat
+videoFrameDown_ : cv::UMat
+videoFrame_ : cv::UMat
}
class "::PedestrianDemoPlan::Detection" as C_0013192661748145484049
class C_0013192661748145484049 {
__
+boxes_ : vector<vector<double>>
+hog_ : cv::HOGDescriptor
+locations_ : std::vector<cv::Rect>
+params_ : cv::TrackerKCF::Params
+probs_ : vector<double>
+redetect_ : bool
+trackerInit_ : bool
+tracker_ : cv::Ptr<cv::Tracker>
}
class "::PedestrianDemoPlan::NonMaxSupression" as C_0005353128706470659011
class C_0005353128706470659011 {
{static} -intersection_over_union(std::vector<std::vector<double>> * boxes, std::vector<double> * base_box, std::vector<double> * iou) : void
{static} -pair_comparator(std::pair<double,size_t> l1, std::pair<double,size_t> l2) : bool
+perform(std::vector<std::vector<double>> * boxes, std::vector<double> * probs, const double threshold = 0.1) : std::vector<bool>
__
}
class "::PedestrianDemoPlan::HOG" as C_0002572210430167138716
class C_0002572210430167138716 {
+detect(const cv::UMat & videoFrameDownGrey, Detection & detection, NonMaxSupression & nms, Params & params) const : void
__
}
class "::PedestrianDemoPlan::Tracking" as C_0014386488014345925737
class C_0014386488014345925737 {
-limitFunc(const double & in, const double & max, const int & val, int & limited) const : void
+perform(const cv::UMat & videoFrameDownGrey, Detection & detection, Params & params, const cv::Rect & tracked) const : void
+save(const Params & params, const cv::Size & sz, cv::Rect & tracked) const : void
__
}
class "::PedestrianDemoPlan::ObjectMarker" as C_0010698125717752813934
class C_0010698125717752813934 {
+draw(const cv::Size & sz, const Params & params, const cv::Rect & tracked) const : void
__
}
class "::GlowEffect" as C_0012099211031893605477
class C_0012099211031893605477 {
+perform(const cv::UMat & srcFloat, cv::UMat & dstFloat, const int & ksize, const int & gain) : void
__
+temp_ : struct Temp
}
class "::GlowEffect::Temp" as C_0017639001496786079189
class C_0017639001496786079189 {
__
+blur_ : cv::UMat
+dst_ : cv::UMat
+high_ : cv::UMat
+low_ : cv::UMat
+src_ : cv::UMat
}
class "::BloomEffect" as C_0008493408179234365920
class C_0008493408179234365920 {
+perform(const cv::UMat & srcFloat, cv::UMat & dstFloat, int ksize = 3, float gain = 4) : void
__
+temp_ : struct Temp
}
class "::BloomEffect::Temp" as C_0011436737625724456724
class C_0011436737625724456724 {
__
+bgrFloat_ : cv::UMat
+blurFloat_ : cv::UMat
+blur_ : cv::UMat
+hlsChannels_ : std::vector<cv::UMat>
+hlsFloat_ : cv::UMat
+lsFoat_ : cv::UMat
}
class "::PostProcessor" as C_0014171802525830360667
class C_0014171802525830360667 {
+perform(const cv::UMat & srcFloat, cv::UMat & dstFloat, const Modes & mode, const int & ksize, const int & gain) : void
__
+bloom_ : BloomEffect
+glow_ : GlowEffect
}
enum "::PostProcessor::Modes" as C_0017744639896965072291
enum C_0017744639896965072291 {
GLOW
BLOOM
DISABLED
}
class "::FeaturePoints" as C_0013957307103516763969
class C_0013957307103516763969 {
+FeaturePoints() : void
+FeaturePoints(cv::Ptr<cv::FastFeatureDetector> detector) : void
..
+detect(const cv::UMat & src, std::vector<cv::Point2f> & output) : void
__
-detector_ : cv::Ptr<cv::FastFeatureDetector>
-tmpKeyPoints_ : vector<cv::KeyPoint>
}
class "::SceneChange" as C_0003895862169028716078
class C_0003895862169028716078 {
+detect(const std::vector<cv::Point2f> & detectedPoints, const float & sceneChangeThresh, const float & sceneChangeThreshDiff, const cv::Size & sz) : bool
__
-lastMovement_ : float
}
class "::BackgroundStyle" as C_0006695634494277403233
class C_0006695634494277403233 {
+apply(const cv::UMat & srcFloat, cv::UMat & dstFloat, const Modes & bgMode) : void
__
-temp_ : struct Temp
}
class "::BackgroundStyle::Temp" as C_0010587925326717021205
class C_0010587925326717021205 {
__
+backgroundGrey_ : cv::UMat
+channels_ : vector<cv::UMat>
+post_ : cv::UMat
+tmp_ : cv::UMat
}
enum "::BackgroundStyle::Modes" as C_0013199932168756623822
enum C_0013199932168756623822 {
GREY
COLOR
VALUE
BLACK
}
class "::Compositor" as C_0006672056103429179071
class C_0006672056103429179071 {
+perform(const cv::UMat & background, const cv::UMat & oldForeground, cv::UMat & foreground, cv::UMat & composed, cv::UMat & framebuffer, const BackgroundStyle::Modes & bgMode, const PostProcessor::Modes & ppMode, const int & ksize, const int & gain) : void
__
-backgroundStyle_ : BackgroundStyle
-postProcessor_ : PostProcessor
-temp_ : struct Temp
}
class "::Compositor::Temp" as C_0013440880995825996929
class C_0013440880995825996929 {
__
+bgFloat_ : cv::UMat
+fbFloat_ : cv::UMat
+fgFloat_ : cv::UMat
+oldFgFloat_ : cv::UMat
}
class "::SparseOpticalFlow" as C_0013950319575839127759
class C_0013950319575839127759 {
+SparseOpticalFlow() : void
..
+visualize(const cv::UMat & prevGrey, const cv::UMat & nextGrey, const std::vector<cv::Point2f> & detectedPoints, const float & maxStroke, const size_t & maxPoints, const float & pointLoss, cv::Scalar_<float> effectColor) : void
__
-rd_ : std::random_device
-rng_ : std::mt19937
-temp_ : struct Temp
}
class "::SparseOpticalFlow::Temp" as C_0012679057283135327330
class C_0012679057283135327330 {
__
+err_ : std::vector<float>
+hull_ : vector<cv::Point2i>
+newPoints_ : vector<std::tuple<float,int,cv::Point2f>>
+nextPoints_ : vector<cv::Point2f>
+prevPoints_ : vector<std::tuple<float,int,cv::Point2f>>
+status_ : std::vector<uchar>
+trimmedPoints_ : vector<cv::Point2f>
+upNextPoints_ : vector<cv::Point2f>
+upTrimmedPoints_ : vector<cv::Point2f>
}
class "Plan::Property<size_t>" as C_0002361251030471947655
class C_0002361251030471947655 {
__
}
class "::OptflowDemoPlan" as C_0003861564540572170963
class C_0003861564540572170963 {
+OptflowDemoPlan() : void
..
+gui() : void
+infer() : void
+setup() : void
__
{static} -UMAT_COPY_TO_ : void (cv::UMat::*const)(cv::OutputArray) const
{static} -UMAT_CREATE : void (cv::UMat::*const)(cv::Size,int,cv::UMatUsageFlags)
{static} -UMAT_DIVIDE_ : void (*const)(cv::InputArray,cv::InputArray,cv::OutputArray,double,int)
{static} -UMAT_RESHAPE_ : cv::UMat (cv::UMat::*const)(int,int) const
-compositor_ : Compositor
{static} -detectedPoints_ : std::vector<cv::Point2f>
-featurePoints_ : FeaturePoints
-frames_ : struct Frames
{static} -params_ : struct Params
-sceneChange_ : SceneChange
-size_ : Property<cv::Size>
-sparseOptflow_ : SparseOpticalFlow
-workerIndex_ : Property<size_t>
}
class "::OptflowDemoPlan::Params" as C_0003640652791362374383
class C_0003640652791362374383 {
__
+backgroundMode_ : BackgroundStyle::Modes
+effectColor_ : cv::Scalar_<float>
+fullscreen_ : bool
+gain_ : int
+kernelSize_ : int
+maxPoints_ : int
+maxStroke_ : int
+pointLoss_ : float
+postProcMode_ : PostProcessor::Modes
+sceneChangeThreshDiff_ : float
+sceneChangeThresh_ : float
+showFps_ : bool
+size_ : cv::Size
}
class "::OptflowDemoPlan::Frames" as C_0014103800108760433338
class C_0014103800108760433338 {
__
+background_ : cv::UMat
+composed_ : cv::UMat
+foregroundGrey_ : cv::UMat
+foreground_ : cv::UMat
+nextGrey_ : cv::UMat
+oldForeground_ : cv::UMat
+prevGrey_ : cv::UMat
}
class "::BlankPlan" as C_0015104778815490014684
class C_0015104778815490014684 {
+infer() : void
__
}
class "::MontageDemoPlan" as C_0000159944402361234126
class C_0000159944402361234126 {
+MontageDemoPlan() : void
..
+infer() : void
+setup() : void
+teardown() : void
__
-TILING_ : const cv::Size
-defaultVP_ : cv::Rect
{static} -globalState_ : State
-id_ : string
-labels_ : std::vector<std::string>
-localState_ : State
-localVP_ : cv::Rect
-motion_ : Event<Mouse>
-plans_ : std::vector<cv::Ptr<Plan>>
-releaseLeft_ : Event<Mouse>
-releaseRight_ : Event<Mouse>
-sourceCodeVP_ : cv::Rect
-targetViewports_ : std::vector<cv::Rect>
}
class "::MontageDemoPlan::State" as C_0013222877348716012496
class C_0013222877348716012496 {
__
+focus_ : int32_t
+zoomed_ : int32_t
}
class "::RenderOpenGLPlan" as C_0002119958199481669547
class C_0002119958199481669547 {
+infer() : void
+setup() : void
__
}
class "::VectorGraphicsPlan" as C_0014205442651908411390
class C_0014205442651908411390 {
+infer() : void
__
-sz_ : Property<cv::Size>
}
class "::VectorGraphicsAndFBPlan" as C_0005123619201441796558
class C_0005123619201441796558 {
+infer() : void
__
-sz_ : Property<cv::Size>
}
class "::VideoEditingPlan" as C_0011864454161555102314
class C_0011864454161555102314 {
+infer() : void
__
-frame_ : cv::UMat
-hv_ : const string
-sz_ : Property<cv::Size>
}
C_0013660456406086794567 ..> C_0012024718733503545994
C_0009512151269622134790 ..> C_0012341812199177372788
C_0000131267513168910887 ..> C_0016404967669614696568
C_0007823658313514250123 ..> C_0009457203331583674562
C_0017634450699635978363 o-- C_0011503404790081369597 : +faceRect_
C_0017634450699635978363 o-- C_0014702312740545146475 : +allFeatures_
C_0017634450699635978363 o-- C_0014702312740545146475 : +allPoints_
C_0012024718733503545994 ..> C_0017634450699635978363
C_0012024718733503545994 o-- C_0012828316383792434276 : -sz_
C_0012024718733503545994 o-- C_0008976615770327578464 : -detector_
C_0012024718733503545994 o-- C_0015916111961563630167 : -facemark_
C_0012024718733503545994 o-- C_0014702312740545146475 : -shapes_
C_0012024718733503545994 o-- C_0011503404790081369597 : -faceRects_
C_0009648834951001119237 ..> C_0012828316383792434276
C_0013533335352226443165 ..> C_0007823658313514250123
C_0003691461508888957067 o-- C_0013660456406086794567 : -extractor_
C_0003691461508888957067 o-- C_0012828316383792434276 : -downSize_
C_0003691461508888957067 o-- C_0017046677242229989481 : -frames_
C_0003691461508888957067 o-- C_0009648834951001119237 : -size_
C_0003691461508888957067 o-- C_0003366586764382543242 : -seqCnt_
C_0003691461508888957067 o-- C_0013533335352226443165 : -pressEvents_
C_0003691461508888957067 o-- C_0009512151269622134790 : -prepareFeatureMasksPlan_
C_0003691461508888957067 o-- C_0000131267513168910887 : -beautyFilterPlan_
C_0003691461508888957067 --> C_0002049758924237025633 : -params_
C_0003691461508888957067 --> C_0017634450699635978363 : -features_
C_0002049758924237025633 --+ C_0003691461508888957067
C_0002049758924237025633 o-- C_0007301216383951390533 : +state_
C_0007301216383951390533 --+ C_0002049758924237025633
C_0017046677242229989481 --+ C_0003691461508888957067
C_0012341812199177372788 --> C_0017634450699635978363 : -inputFeatures_
C_0012341812199177372788 --> C_0017046677242229989481 : -inputOutputFrames_
C_0016404967669614696568 --> C_0002049758924237025633 : -inputParams_
C_0016404967669614696568 --> C_0017046677242229989481 : -inputOutputFrames_
C_0016404967669614696568 o-- C_0013683371754112636395 : -blender_
C_0013220523135191901578 o-- C_0014467371581349318797 : -handles_
C_0014467371581349318797 --+ C_0013220523135191901578
C_0016819006405677120920 o-- C_0013220523135191901578 : -scene_
C_0009415110909064258035 ..> C_0012828316383792434276
C_0009415110909064258035 o-- C_0012691572243635623162 : -lastColor_
C_0005697803539771914262 o-- C_0012411556942105899070 : -params_
C_0005697803539771914262 o-- C_0009415110909064258035 : -finder_
C_0005697803539771914262 o-- C_0009648834951001119237 : -size_
C_0012411556942105899070 --+ C_0005697803539771914262
C_0012411556942105899070 o-- C_0012691572243635623162 : +last_
C_0002144789375385317597 o-- C_0009648834951001119237 : -size_
C_0010050257221250877193 o-- C_0009648834951001119237 : -size_
C_0010050257221250877193 o-- C_0018323296888837851871 : -image_
C_0018323296888837851871 --+ C_0010050257221250877193
C_0006322745746179723541 ..> C_0012828316383792434276
C_0006322745746179723541 o-- C_0017565488616650291079 : +color_
C_0011876767352523608122 ..> C_0012828316383792434276
C_0004020929081029510661 ..> C_0012828316383792434276
C_0004020929081029510661 o-- C_0009761367101418875161 : +temp_
C_0009761367101418875161 --+ C_0004020929081029510661
C_0000913204125010388495 ..> C_0011503404790081369597
C_0012683496213704444055 o-- C_0009648834951001119237 : -size_
C_0012683496213704444055 o-- C_0000913204125010388495 : -vp_
C_0012683496213704444055 o-- C_0012828316383792434276 : -lastVpSize_
C_0012683496213704444055 --> C_0006322745746179723541 : -text_
C_0012683496213704444055 --> C_0011876767352523608122 : -stars_
C_0012683496213704444055 --> C_0004020929081029510661 : -warp_
C_0002427133778835796536 o-- C_0009648834951001119237 : -size_
C_0002788367631872936021 o-- C_0009648834951001119237 : -size_
C_0002788367631872936021 --> C_0002319757581708897163 : -params_
C_0002319757581708897163 --+ C_0002788367631872936021
C_0002319757581708897163 o-- C_0017565488616650291079 : +color_
C_0013110593561891133178 o-- C_0013220523135191901578 : -scene_
C_0005293148243978868372 o-- C_0013220523135191901578 : -scene_
C_0017969802394257173831 o-- C_0009648834951001119237 : -size_
C_0011716593238131958110 ..> C_0012828316383792434276
C_0011716593238131958110 ..> C_0009507759707932437373
C_0011716593238131958110 ..> C_0006266419177318437093
C_0011716593238131958110 o-- C_0011277546228242115754 : -glHandles
C_0011277546228242115754 --+ C_0011716593238131958110
C_0009507759707932437373 --+ C_0011716593238131958110
C_0009507759707932437373 o-- C_0017565488616650291079 : +baseColor_
C_0009165709807179207525 ..> C_0012828316383792434276
C_0009165709807179207525 ..> C_0009457203331583674562
C_0009165709807179207525 ..> C_0007823658313514250123
C_0009165709807179207525 o-- C_0011716593238131958110 : -scene_
C_0009165709807179207525 o-- C_0009648834951001119237 : -size_
C_0009165709807179207525 o-- C_0009648834951001119237 : -winSz_
C_0009165709807179207525 o-- C_0013533335352226443165 : -release_
C_0009165709807179207525 o-- C_0013533335352226443165 : -scroll_
C_0009165709807179207525 --> C_0003948344328866063485 : -params_
C_0003948344328866063485 --+ C_0009165709807179207525
C_0003948344328866063485 o-- C_0006266419177318437093 : +camera_
C_0003948344328866063485 o-- C_0009507759707932437373 : +settings_
C_0009411216676298393653 o-- C_0016377210597784346867 : -params_
C_0009411216676298393653 o-- C_0014379154094335627936 : -frames_
C_0009411216676298393653 o-- C_0013192661748145484049 : -detection_
C_0009411216676298393653 o-- C_0009648834951001119237 : -size_
C_0009411216676298393653 o-- C_0005353128706470659011 : -nms
C_0009411216676298393653 o-- C_0002572210430167138716 : -hog
C_0009411216676298393653 o-- C_0014386488014345925737 : -tracking
C_0009411216676298393653 o-- C_0010698125717752813934 : -marker_
C_0016377210597784346867 --+ C_0009411216676298393653
C_0016377210597784346867 o-- C_0012828316383792434276 : +downSize_
C_0016377210597784346867 o-- C_0012841155197512327502 : +scale_
C_0016377210597784346867 o-- C_0011503404790081369597 : +newTracked_
C_0014379154094335627936 --+ C_0009411216676298393653
C_0013192661748145484049 --+ C_0009411216676298393653
C_0013192661748145484049 o-- C_0011503404790081369597 : +locations_
C_0013192661748145484049 o-- C_0006885173936745783478 : +tracker_
C_0005353128706470659011 --+ C_0009411216676298393653
C_0002572210430167138716 --+ C_0009411216676298393653
C_0002572210430167138716 ..> C_0013192661748145484049
C_0002572210430167138716 ..> C_0005353128706470659011
C_0002572210430167138716 ..> C_0016377210597784346867
C_0014386488014345925737 --+ C_0009411216676298393653
C_0014386488014345925737 ..> C_0013192661748145484049
C_0014386488014345925737 ..> C_0016377210597784346867
C_0014386488014345925737 ..> C_0011503404790081369597
C_0014386488014345925737 ..> C_0012828316383792434276
C_0010698125717752813934 --+ C_0009411216676298393653
C_0010698125717752813934 ..> C_0012828316383792434276
C_0010698125717752813934 ..> C_0016377210597784346867
C_0010698125717752813934 ..> C_0011503404790081369597
C_0012099211031893605477 o-- C_0017639001496786079189 : +temp_
C_0017639001496786079189 --+ C_0012099211031893605477
C_0008493408179234365920 o-- C_0011436737625724456724 : +temp_
C_0011436737625724456724 --+ C_0008493408179234365920
C_0014171802525830360667 ..> C_0017744639896965072291
C_0014171802525830360667 o-- C_0012099211031893605477 : +glow_
C_0014171802525830360667 o-- C_0008493408179234365920 : +bloom_
C_0017744639896965072291 --+ C_0014171802525830360667
C_0013957307103516763969 ..> C_0014702312740545146475
C_0013957307103516763969 o-- C_0001645353501555632351 : -detector_
C_0003895862169028716078 ..> C_0014702312740545146475
C_0003895862169028716078 ..> C_0012828316383792434276
C_0006695634494277403233 ..> C_0013199932168756623822
C_0006695634494277403233 o-- C_0010587925326717021205 : -temp_
C_0010587925326717021205 --+ C_0006695634494277403233
C_0013199932168756623822 --+ C_0006695634494277403233
C_0006672056103429179071 ..> C_0013199932168756623822
C_0006672056103429179071 ..> C_0017744639896965072291
C_0006672056103429179071 o-- C_0006695634494277403233 : -backgroundStyle_
C_0006672056103429179071 o-- C_0014171802525830360667 : -postProcessor_
C_0006672056103429179071 o-- C_0013440880995825996929 : -temp_
C_0013440880995825996929 --+ C_0006672056103429179071
C_0013950319575839127759 ..> C_0014702312740545146475
C_0013950319575839127759 ..> C_0017565488616650291079
C_0013950319575839127759 o-- C_0012679057283135327330 : -temp_
C_0012679057283135327330 --+ C_0013950319575839127759
C_0012679057283135327330 o-- C_0009457203331583674562 : +hull_
C_0012679057283135327330 o-- C_0014702312740545146475 : +nextPoints_
C_0012679057283135327330 o-- C_0014702312740545146475 : +trimmedPoints_
C_0012679057283135327330 o-- C_0014702312740545146475 : +prevPoints_
C_0012679057283135327330 o-- C_0014702312740545146475 : +newPoints_
C_0012679057283135327330 o-- C_0014702312740545146475 : +upTrimmedPoints_
C_0012679057283135327330 o-- C_0014702312740545146475 : +upNextPoints_
C_0003861564540572170963 o-- C_0014103800108760433338 : -frames_
C_0003861564540572170963 o-- C_0013957307103516763969 : -featurePoints_
C_0003861564540572170963 o-- C_0003895862169028716078 : -sceneChange_
C_0003861564540572170963 o-- C_0013950319575839127759 : -sparseOptflow_
C_0003861564540572170963 o-- C_0006672056103429179071 : -compositor_
C_0003861564540572170963 o-- C_0009648834951001119237 : -size_
C_0003861564540572170963 o-- C_0002361251030471947655 : -workerIndex_
C_0003861564540572170963 --> C_0003640652791362374383 : -params_
C_0003640652791362374383 --+ C_0003861564540572170963
C_0003640652791362374383 o-- C_0017744639896965072291 : +postProcMode_
C_0003640652791362374383 o-- C_0012828316383792434276 : +size_
C_0003640652791362374383 o-- C_0013199932168756623822 : +backgroundMode_
C_0003640652791362374383 o-- C_0017565488616650291079 : +effectColor_
C_0014103800108760433338 --+ C_0003861564540572170963
C_0000159944402361234126 o-- C_0012828316383792434276 : -TILING_
C_0000159944402361234126 o-- C_0011503404790081369597 : -targetViewports_
C_0000159944402361234126 o-- C_0001145899880886997613 : -plans_
C_0000159944402361234126 o-- C_0011503404790081369597 : -defaultVP_
C_0000159944402361234126 o-- C_0011503404790081369597 : -sourceCodeVP_
C_0000159944402361234126 o-- C_0013533335352226443165 : -motion_
C_0000159944402361234126 o-- C_0013533335352226443165 : -releaseLeft_
C_0000159944402361234126 o-- C_0013533335352226443165 : -releaseRight_
C_0000159944402361234126 o-- C_0013222877348716012496 : -localState_
C_0000159944402361234126 o-- C_0011503404790081369597 : -localVP_
C_0000159944402361234126 --> C_0013222877348716012496 : -globalState_
C_0013222877348716012496 --+ C_0000159944402361234126
C_0014205442651908411390 o-- C_0009648834951001119237 : -sz_
C_0005123619201441796558 o-- C_0009648834951001119237 : -sz_
C_0011864454161555102314 o-- C_0009648834951001119237 : -sz_

'Generated with clang-uml, version 0.6.3-5-g3650837
'LLVM version clang version 18.1.8
@enduml
